<svg width="700pt" height="700pt" version="1.1" viewBox="0 0 700 600" xmlns="http://www.w3.org/2000/svg" xmlns:xlink="http://www.w3.org/1999/xlink">
  <g>
    <path d="m533.68 291.76c-24.641 0-45.922 14-56 34.719l-74.48-28.559c1.1211-5.0391 1.6797-10.078 1.6797-15.68 0-21.281-9.5195-40.32-24.078-52.641l47.039-61.602c8.3984 5.0391 17.922 8.3984 28.559 8.3984 29.121 0 53.199-24.078 53.199-53.199 0-29.121-24.078-53.199-53.199-53.199-29.121 0-53.199 24.078-53.199 53.199 0 15.68 6.7188 29.121 17.359 39.199l-47.598 61.602c-10.641-6.7188-23.52-11.199-37.52-11.199-13.441 0-25.762 3.9219-36.398 10.641l-31.922-52.641c15.121-10.641 25.199-28 25.199-47.602 0-31.922-25.762-58.238-58.238-58.238-31.922 0-58.238 25.762-58.238 58.238 0 32.48 25.762 58.238 58.238 58.238 8.9609 0 17.359-2.2383 24.641-5.6016l32.48 53.199c-15.68 12.879-25.199 31.922-25.199 53.762 0 2.2383 0 3.9219 0.55859 6.1602l-76.16 12.32c-2.8008-21.281-21.281-37.52-43.121-37.52-24.078 0-43.68 19.602-43.68 43.68s19.602 43.68 43.68 43.68c22.961 0 41.441-17.359 43.121-39.762l77.281-12.32c6.7188 29.121 31.359 50.961 61.602 53.762l-3.9219 47.039c-3.3594 0-6.7188 0.55859-9.5195 1.1211-26.32 5.6016-42.559 31.922-36.961 57.68 5.6016 26.32 31.922 42.559 57.68 36.961 26.32-5.6016 42.559-31.922 36.961-57.68-4.4805-19.602-20.16-33.602-38.641-36.961l3.9219-47.602c28.559-1.1211 52.078-19.602 61.602-44.801l73.359 28.559c-1.6797 6.1602-2.8008 12.32-2.8008 19.039 0 34.719 28 62.719 62.719 62.719s62.719-28 62.719-62.719c0.55859-35.832-28.004-64.391-62.723-64.391z"></path>
  </g>
</svg>