<?xml version="1.0" encoding="UTF-8"?>
<svg width="494px" height="433px" viewBox="0 0 494 433" version="1.1" xmlns="http://www.w3.org/2000/svg" xmlns:xlink="http://www.w3.org/1999/xlink">
    <title>Path</title>
    <g id="Page-1" stroke="none" stroke-width="1" fill="none" fill-rule="evenodd">
        <g id="noun-data-1868648" transform="translate(-33.000000, 0.000000)" fill="#FFFFFF" fill-rule="nonzero">
            <path d="M463.68,227.76 C439.039,227.76 417.758,241.76 407.68,262.479 L333.2,233.92 C334.3211,228.8809 334.8797,223.842 334.8797,218.24 C334.8797,196.959 325.3602,177.92 310.8017,165.599 L357.8407,103.997 C366.2391,109.0361 375.7627,112.3954 386.3997,112.3954 C415.5207,112.3954 439.5987,88.3174 439.5987,59.1964 C439.5987,30.0754 415.5207,5.9974 386.3997,5.9974 C357.2787,5.9974 333.2007,30.0754 333.2007,59.1964 C333.2007,74.8764 339.9195,88.3174 350.5597,98.3954 L302.9617,159.9974 C292.3207,153.2786 279.4417,148.7984 265.4417,148.7984 C252.0007,148.7984 239.6797,152.7203 229.0437,159.4394 L197.1217,106.7984 C212.2427,96.1574 222.3207,78.7984 222.3207,59.1964 C222.3207,27.2744 196.5587,0.9584 164.0827,0.9584 C132.1607,0.9584 105.8447,26.7204 105.8447,59.1964 C105.8447,91.6764 131.6067,117.4344 164.0827,117.4344 C173.0436,117.4344 181.4417,115.1961 188.7237,111.8328 L221.2037,165.0318 C205.5237,177.9108 196.0047,196.9538 196.0047,218.7938 C196.0047,221.0321 196.0047,222.7157 196.56329,224.954 L120.40329,237.274 C117.60249,215.993 99.12229,199.754 77.28229,199.754 C53.20429,199.754 33.60229,219.356 33.60229,243.434 C33.60229,267.512 53.20429,287.114 77.28229,287.114 C100.24329,287.114 118.72329,269.755 120.40329,247.352 L197.68429,235.032 C204.40309,264.153 229.04329,285.993 259.28629,288.794 L255.36439,335.833 C252.00499,335.833 248.64559,336.39159 245.84489,336.9541 C219.52489,342.5557 203.28589,368.8761 208.88389,394.6341 C214.48549,420.9541 240.80589,437.1931 266.56389,431.5951 C292.88389,425.9935 309.12289,399.6731 303.52489,373.9151 C299.04439,354.3131 283.36489,340.3131 264.88389,336.9541 L268.80579,289.3521 C297.36479,288.231 320.88379,269.7501 330.40779,244.5511 L403.76679,273.1101 C402.08709,279.2703 400.96599,285.4301 400.96599,292.1491 C400.96599,326.8681 428.96599,354.8681 463.68499,354.8681 C498.40399,354.8681 526.40399,326.8681 526.40399,292.1491 C526.96258,256.3171 498.39999,227.7581 463.68099,227.7581 L463.68,227.76 Z" id="Path"></path>
        </g>
    </g>
</svg>